<svg xmlns="http://www.w3.org/2000/svg" viewBox="0 0 48 48"><title>22-award</title><g id="_22-award" data-name="22-award"><polygon points="30 21 27 24 28 29 24 26 20 29 21 24 18 21 22 21 24 17 26 21 30 21" style="fill:#ffdc56"/><path d="M38,1l5,5c-5,15,0,12,0,23,0,11.05-19,18-19,18S5,40.05,5,29c0-11,5-8,0-23l5-5c2,2,3,4,7,4,2,0,7-1.79,7-4,0,2.21,5,4,7,4C35,5,36,3,38,1ZM36.98,33.26c4-4.86,1-12.66,0-16.55s1-9.71,1-9.71c-2,1.94-3,2.91-7,2.91C29.05,9.91,24.3,9.2,24,7.2a1.34,1.34,0,0,0,.01-.2h-.02a1.34,1.34,0,0,0,.01.2c-.3,2-5.05,2.71-6.98,2.71-4,0-5-.97-7-2.91,0,0,2,5.83,1,9.71s-4,11.69,0,16.55C14.91,37.97,23.5,41.78,23.99,42h.02C24.5,41.78,33.09,37.97,36.98,33.26Z" style="fill:#ffdc56"/><path d="M36.98,16.71c1,3.89,4,11.69,0,16.55C33.09,37.97,24.5,41.78,24.01,42h-.02c-.49-.22-9.08-4.03-12.97-8.74-4-4.86-1-12.66,0-16.55s-1-9.71-1-9.71c2,1.94,3,2.91,7,2.91,1.93,0,6.68-.71,6.98-2.71.3,2,5.05,2.71,6.98,2.71,4,0,5-.97,7-2.91C37.98,7,35.98,12.83,36.98,16.71ZM27,24l3-3H26l-2-4-2,4H18l3,3-1,5,4-3,4,3Z" style="fill:#a166f5"/><path d="M38.876,17.933c-.167-.584-.32-1.121-.443-1.6-.874-3.392.948-8.8.966-8.851a1.5,1.5,0,0,0-2.463-1.561C35.019,7.783,34.373,8.41,30.98,8.41c-2.368,0-5.178-.843-5.5-1.455a1.508,1.508,0,0,0-1.474-1.271,1.482,1.482,0,0,0-1.48,1.26c-.295.614-3.124,1.466-5.5,1.466-3.393,0-4.039-.627-5.956-2.486A1.5,1.5,0,0,0,8.6,7.486c.515,1.5,1.694,6.024.965,8.851-.122.475-.275,1.012-.442,1.6C7.9,22.2,5.862,29.355,9.863,34.215c3.875,4.691,11.922,8.441,13.514,9.154a1.544,1.544,0,0,0,1.265-.009c1.573-.7,9.62-4.454,13.5-9.147C42.138,29.355,40.1,22.2,38.876,17.933ZM36.98,33.26C33.09,37.97,24.5,41.78,24.01,42h-.02c-.49-.22-9.08-4.03-12.97-8.74-4-4.86-1-12.66,0-16.55s-1-9.71-1-9.71c2,1.94,3,2.91,7,2.91,1.93,0,6.68-.71,6.98-2.71.3,2,5.05,2.71,6.98,2.71,4,0,5-.97,7-2.91,0,0-2,5.83-1,9.71S40.98,28.4,36.98,33.26Z" style="fill:#ffca46"/><path d="M36.98,16.71c-1-3.88,1-9.71,1-9.71-2,1.94-3,2.91-7,2.91C29.05,9.91,24.3,9.2,24,7.2c-.3,2-5.05,2.71-6.98,2.71-4,0-5-.97-7-2.91,0,0,2,5.83,1,9.71s-4,11.69,0,16.55C14.91,37.97,23.5,41.78,23.99,42h.02c.49-.22,9.08-4.03,12.97-8.74C40.98,28.4,37.98,20.6,36.98,16.71Zm-1.156,15.6C32.718,36.064,26.142,39.348,24,40.354c-2.114-.993-8.711-4.282-11.822-8.047-3-3.643-1.3-9.606-.169-13.551.175-.611.335-1.173.463-1.672a16.086,16.086,0,0,0,0-6.395,11.438,11.438,0,0,0,4.549.721c.059,0,4.552-.062,6.98-1.779,2.428,1.717,6.921,1.779,6.98,1.779a11.438,11.438,0,0,0,4.549-.721,16.1,16.1,0,0,0,0,6.394c.129.5.289,1.062.464,1.673C37.117,22.7,38.82,28.664,35.824,32.305Z" style="fill:#fff"/><polygon points="30 21 27 24 28 29 24 26 20 29 21 24 18 21 22 21 24 17 26 21 30 21" style="fill:#ffa233"/><polygon points="22 21 18 21 24 23 22 21" style="fill:#ffca46"/><polygon points="26 21 24 17 24 23 26 21" style="fill:#ffca46"/><polygon points="24 17 22 21 24 23 24 17" style="fill:#ffb337"/><polygon points="30 21 26 21 24 23 30 21" style="fill:#ffb337"/><polygon points="27 24 30 21 24 23 27 24" style="fill:#ff8d1f"/><polygon points="21 24 20 29 24 23 21 24" style="fill:#ff711f"/><polygon points="24 26 28 29 24 23 24 26" style="fill:#ff8d1f"/><polygon points="24 23 28 29 27 24 24 23" style="fill:#ffb337"/><polygon points="20 29 24 26 24 23 20 29" style="fill:#ffa233"/><polygon points="18 21 21 24 24 23 18 21" style="fill:#ff8d1f"/><path d="M30.924,20.617A1,1,0,0,0,30,20H26.618L24.9,16.553a1.042,1.042,0,0,0-1.79,0L21.382,20H18a1,1,0,0,0-.707,1.707l2.621,2.622L19.02,28.8a1,1,0,0,0,1.58,1L24,27.25l3.4,2.55a1,1,0,0,0,1.58-1l-.894-4.475,2.621-2.622A1,1,0,0,0,30.924,20.617ZM27,24l1,5-4-3-4,3,1-5-3-3h4l2-4,2,4h4Z" style="fill:#fff"/><ellipse cx="31.684" cy="14.695" rx="1.642" ry="2.286" transform="translate(-1.106 26.719) rotate(-45.02)" style="fill:#eaf6ff"/><ellipse cx="33.682" cy="18.708" rx="0.825" ry="1.148" transform="translate(-3.36 29.309) rotate(-45.02)" style="fill:#eaf6ff"/><ellipse cx="12.427" cy="27.208" rx="0.413" ry="0.574" transform="translate(-15.603 16.766) rotate(-45.02)" style="fill:#eaf6ff"/><path d="M40.438,25.533a11.906,11.906,0,0,1-2.3,8.68c-3.877,4.693-11.924,8.443-13.5,9.147a1.544,1.544,0,0,1-1.265.009c-1.592-.713-9.639-4.463-13.514-9.154a11.907,11.907,0,0,1-2.3-8.681A14.518,14.518,0,0,1,5.673,23,23.6,23.6,0,0,0,5,29C5,40.05,24,47,24,47s19-6.95,19-18a23.6,23.6,0,0,0-.673-6A14.474,14.474,0,0,1,40.438,25.533Z" style="fill:#ffca46"/><path d="M39,26.9A9.757,9.757,0,0,1,36.98,33.26C33.09,37.97,24.5,41.78,24.01,42h-.02c-.49-.22-9.08-4.03-12.97-8.74A9.757,9.757,0,0,1,9,26.9a16.8,16.8,0,0,1-1.437-1.364,11.907,11.907,0,0,0,2.3,8.681c3.875,4.691,11.922,8.441,13.514,9.154a1.544,1.544,0,0,0,1.265-.009c1.573-.7,9.62-4.454,13.5-9.147a11.906,11.906,0,0,0,2.3-8.68A16.652,16.652,0,0,1,39,26.9Z" style="fill:#ffa233"/><path d="M10.562,28.086a7.669,7.669,0,0,0,1.616,4.221c3.111,3.765,9.708,7.054,11.822,8.047,2.142-1.006,8.718-4.29,11.824-8.049a7.669,7.669,0,0,0,1.615-4.219A23.942,23.942,0,0,1,24,32,23.936,23.936,0,0,1,10.562,28.086Z" style="fill:#7655ff"/><path d="M11.02,33.26C14.91,37.97,23.5,41.78,23.99,42h.02c.49-.22,9.08-4.03,12.97-8.74A9.757,9.757,0,0,0,39,26.9a18.526,18.526,0,0,1-1.562,1.188,7.669,7.669,0,0,1-1.615,4.219C32.718,36.064,26.142,39.348,24,40.354c-2.114-.993-8.711-4.282-11.822-8.047a7.669,7.669,0,0,1-1.616-4.221A18.176,18.176,0,0,1,9,26.9,9.757,9.757,0,0,0,11.02,33.26Z" style="fill:#d6e0fb"/></g></svg>