<svg xmlns="http://www.w3.org/2000/svg" viewBox="0 0 48 48"><title>26-gold medal</title><g id="_26-gold_medal" data-name="26-gold medal"><circle cx="24" cy="24" r="23" style="fill:#ffdc56"/><path d="M24,3A21,21,0,1,0,45,24,21,21,0,0,0,24,3Zm0,41A20,20,0,1,1,44,24,20,20,0,0,1,24,44Z" style="fill:#fffbaf"/><path d="M10,18A19.886,19.886,0,0,1,13.19,7.19,19.989,19.989,0,1,0,40.81,34.81,19.98,19.98,0,0,1,10,18Z" style="fill:#ffca46"/><path d="M24,1A23,23,0,1,0,47,24,23,23,0,0,0,24,1Zm0,44A21,21,0,1,1,45,24,21,21,0,0,1,24,45Z" style="fill:#ffca46"/><path d="M24,42.5a.5.5,0,0,1-.21-.047C14.437,38.111,9.131,32.731,8.021,26.466c-1.517-8.561,5.333-15.528,5.625-15.82a.5.5,0,0,1,.708.708c-.068.068-6.777,6.9-5.347,14.944C10.051,32.175,15.1,37.271,24,41.448c8.908-4.178,13.953-9.277,14.995-15.157,1.426-8.053-5.281-14.869-5.349-14.937a.5.5,0,0,1,.708-.708c.292.292,7.142,7.259,5.625,15.82-1.11,6.265-6.416,11.645-15.769,15.987A.5.5,0,0,1,24,42.5Z" style="fill:#fffbaf"/><path d="M39.62,23.13l-2.39.34a2.441,2.441,0,0,1-2.81-1.63L34,19.87l1.86-.26a2.614,2.614,0,0,1,2.55,1.02l1,1.51.3-1.7a2.216,2.216,0,0,1,1.97-1.67l1.86-.27.42,1.97A2.051,2.051,0,0,1,42,22.78Z" style="fill:#ffa233"/><path d="M39.54,10.64a2.258,2.258,0,0,1-.28,3.04l-1.56,1.4-1.56,1.4a1.931,1.931,0,0,1-2.85-.23L32,14.61l1.22-1.09a1.918,1.918,0,0,1,2.36-.21l1.47.94.01.01-.01-.01-.62-1.71a2.287,2.287,0,0,1,.6-2.45L38.25,9Z" style="fill:#ffa233"/><path d="M33.28,7.72c1.06,1.06.64,3.2.64,3.2s-2.14.42-3.2-.64-.64-3.2-.64-3.2S32.22,6.66,33.28,7.72Z" style="fill:#ffa233"/><path d="M33.09,35.91l-1.48-1.48a2.094,2.094,0,0,1,0-2.95L33.09,30l1.15,1.15a2.085,2.085,0,0,1,.39,2.41l-.8,1.61,1.61-.8a2.085,2.085,0,0,1,2.41.39L39,35.91l-1.48,1.48a2.094,2.094,0,0,1-2.95,0Z" style="fill:#ffa233"/><path d="M39.46,27.58a2.012,2.012,0,0,1,2.06-1.1l1.48.24-.38,2.03a2.065,2.065,0,0,1-2.28,1.73l-1.89-.31-1.9-.3a1.944,1.944,0,0,1-1.51-2.34l.38-2.03,1.48.24a1.863,1.863,0,0,1,1.53,1.68l.21,1.74Z" style="fill:#ffa233"/><path d="M28,40l1.59-.66a2.537,2.537,0,0,1,3.08.16L34,40.84l-2.14,2.13a3.218,3.218,0,0,1-2.7,1,1.89,1.89,0,0,1-1.4-1.17l-.44-1.06a2.106,2.106,0,0,0-1.06-1.06l-1.06-.44a1.89,1.89,0,0,1-1.17-1.4,2.561,2.561,0,0,1-.03-.39,3.337,3.337,0,0,1,1.03-2.31L27.16,34l1.34,1.33a2.537,2.537,0,0,1,.16,3.08Z" style="fill:#ffa233"/><path d="M39.26,13.68a2.258,2.258,0,0,0,.28-3.04L38.25,9l-1.22,1.09a2.287,2.287,0,0,0-.6,2.45l.62,1.71.01.01-.01-.01-.116-.074.787.885Z" style="fill:#ffb337"/><path d="M33.28,7.72c-1.06-1.06-3.2-.64-3.2-.64h0l3.84,3.84S34.34,8.78,33.28,7.72Z" style="fill:#ffb337"/><path d="M43.96,20.47l-.42-1.97-1.86.27a2.216,2.216,0,0,0-1.97,1.67l-.269,1.526.13,1.171.049-.007L42,22.78A2.051,2.051,0,0,0,43.96,20.47Z" style="fill:#ffb337"/><path d="M41.52,26.48a2.012,2.012,0,0,0-2.06,1.1l-.82,1.58h0l-.169,1.013,1.869.307a2.065,2.065,0,0,0,2.28-1.73L43,26.72Z" style="fill:#ffb337"/><path d="M37.85,34.76a2.085,2.085,0,0,0-2.41-.39l-1.61.8-.74.74,1.48,1.48a2.094,2.094,0,0,0,2.95,0L39,35.91Z" style="fill:#ffb337"/><path d="M32.67,39.5a2.537,2.537,0,0,0-3.08-.16L28,40l-1.112,1.112a2.1,2.1,0,0,1,.432.628l.44,1.06a1.89,1.89,0,0,0,1.4,1.17,3.218,3.218,0,0,0,2.7-1L34,40.84Z" style="fill:#ffb337"/><path d="M8.379,23.13l2.39.34a2.441,2.441,0,0,0,2.81-1.63L14,19.87l-1.86-.26a2.614,2.614,0,0,0-2.55,1.02l-1,1.51-.3-1.7a2.216,2.216,0,0,0-1.97-1.67l-1.86-.27-.42,1.97A2.051,2.051,0,0,0,6,22.78Z" style="fill:#ffb337"/><path d="M8.459,10.64a2.258,2.258,0,0,0,.28,3.04l1.56,1.4,1.56,1.4a1.931,1.931,0,0,0,2.85-.23L16,14.61l-1.22-1.09a1.918,1.918,0,0,0-2.36-.21l-1.47.94-.01.01.01-.01.62-1.71a2.287,2.287,0,0,0-.6-2.45L9.749,9Z" style="fill:#ffb337"/><path d="M14.719,7.72c-1.06,1.06-.64,3.2-.64,3.2s2.14.42,3.2-.64.64-3.2.64-3.2S15.779,6.66,14.719,7.72Z" style="fill:#ffb337"/><path d="M14.909,35.91l1.48-1.48a2.094,2.094,0,0,0,0-2.95L14.909,30l-1.15,1.15a2.085,2.085,0,0,0-.39,2.41l.8,1.61-1.61-.8a2.085,2.085,0,0,0-2.41.39L9,35.91l1.48,1.48a2.094,2.094,0,0,0,2.95,0Z" style="fill:#ffb337"/><path d="M8.539,27.58a2.012,2.012,0,0,0-2.06-1.1L5,26.72l.38,2.03a2.065,2.065,0,0,0,2.28,1.73l1.89-.31,1.9-.3a1.944,1.944,0,0,0,1.51-2.34l-.38-2.03-1.48.24a1.863,1.863,0,0,0-1.53,1.68l-.21,1.74Z" style="fill:#ffb337"/><path d="M20,40l-1.59-.66a2.537,2.537,0,0,0-3.08.16L14,40.84l2.14,2.13a3.218,3.218,0,0,0,2.7,1,1.89,1.89,0,0,0,1.4-1.17l.44-1.06a2.106,2.106,0,0,1,1.06-1.06l1.06-.44a1.89,1.89,0,0,0,1.17-1.4,2.561,2.561,0,0,0,.03-.39,3.337,3.337,0,0,0-1.03-2.31L20.839,34,19.5,35.33a2.537,2.537,0,0,0-.16,3.08Z" style="fill:#ffb337"/><path d="M8.739,13.68a2.258,2.258,0,0,1-.28-3.04L9.749,9l1.22,1.09a2.287,2.287,0,0,1,.6,2.45l-.62,1.71-.01.01.01-.01.116-.074-.787.885Z" style="fill:#ffa233"/><path d="M14.719,7.72c1.06-1.06,3.2-.64,3.2-.64h0l-3.84,3.84S13.659,8.78,14.719,7.72Z" style="fill:#ffa233"/><path d="M4.039,20.47l.42-1.97,1.86.27a2.216,2.216,0,0,1,1.97,1.67l.27,1.526-.13,1.171-.05-.007L6,22.78A2.051,2.051,0,0,1,4.039,20.47Z" style="fill:#ffa233"/><path d="M6.479,26.48a2.012,2.012,0,0,1,2.06,1.1l.82,1.58h0l.169,1.013-1.869.307a2.065,2.065,0,0,1-2.28-1.73L5,26.72Z" style="fill:#ffa233"/><path d="M10.149,34.76a2.085,2.085,0,0,1,2.41-.39l1.61.8.74.74-1.48,1.48a2.094,2.094,0,0,1-2.95,0L9,35.91Z" style="fill:#ffa233"/><path d="M15.329,39.5a2.537,2.537,0,0,1,3.08-.16L20,40l1.113,1.112a2.1,2.1,0,0,0-.433.628l-.44,1.06a1.89,1.89,0,0,1-1.4,1.17,3.218,3.218,0,0,1-2.7-1L14,40.84Z" style="fill:#ffa233"/><path d="M25,30V15a1,1,0,0,0-1.707-.707l-4,4,1.414,1.414L23,17.414V30H20v2h8V30Z" style="fill:#fffbaf"/><ellipse cx="30.684" cy="20.695" rx="1.642" ry="2.286" transform="translate(-5.644 27.771) rotate(-45.02)" style="fill:#eaf6ff"/><ellipse cx="31.682" cy="24.708" rx="0.825" ry="1.148" transform="translate(-8.19 29.653) rotate(-45.02)" style="fill:#eaf6ff"/><ellipse cx="15.427" cy="25.208" rx="0.413" ry="0.574" transform="translate(-13.309 18.302) rotate(-45.02)" style="fill:#eaf6ff"/></g></svg>