<svg xmlns="http://www.w3.org/2000/svg" viewBox="0 0 48 48"><title>30-crown</title><g id="_30-crown" data-name="30-crown"><path d="M44,43H4V35H44Z" style="fill:#ffdc56"/><path d="M45,43a2.006,2.006,0,0,1,2,2,2.015,2.015,0,0,1-2,2H3a2.006,2.006,0,0,1-2-2,1.955,1.955,0,0,1,.59-1.41A1.955,1.955,0,0,1,3,43H45Z" style="fill:#a166f5"/><path d="M45,31a2.006,2.006,0,0,1,2,2,2.015,2.015,0,0,1-2,2H3a2.006,2.006,0,0,1-2-2,1.955,1.955,0,0,1,.59-1.41A1.955,1.955,0,0,1,3,31H45Z" style="fill:#a166f5"/><path d="M27.86,19.82A5,5,0,1,1,24,18,4.982,4.982,0,0,1,27.86,19.82Z" style="fill:#a166f5"/><path d="M44.27,18.27C45.29,18.77,46,20.1,46,23c0,3.76-1.18,4.87-2.7,4.99-.1.01-.2.01-.3.01-1.66,0-3-1-3-5s1.34-5,3-5A2.841,2.841,0,0,1,44.27,18.27Z" style="fill:#a166f5"/><path d="M3.73,18.27A2.841,2.841,0,0,1,5,18c1.66,0,3,1,3,5s-1.34,5-3,5c-.1,0-.2,0-.3-.01C3.18,27.87,2,26.76,2,23,2,20.1,2.71,18.77,3.73,18.27Z" style="fill:#a166f5"/><path d="M43,18a2.841,2.841,0,0,1,1.27.27l.31-3.02L33,22l-2.9-3.86L24,10,15,22,3.42,15.25l.31,3.02A2.841,2.841,0,0,1,5,18c1.66,0,3,1,3,5s-1.34,5-3,5c-.1,0-.2,0-.3-.01V28L5,31H43l.3-3v-.01c-.1.01-.2.01-.3.01-1.66,0-3-1-3-5S41.34,18,43,18ZM24,28a5,5,0,1,1,5-5A5,5,0,0,1,24,28Z" style="fill:#ffdc56"/><polygon points="40 14.057 40 14 36 7 29.09 11.93 33.55 18 40 14.057" style="fill:#ffb337"/><polygon points="18.91 11.93 12 7 8 14 8 14.057 14.45 18 18.91 11.93" style="fill:#ffb337"/><polygon points="33.55 18 45 11 44.58 15.25 33 22 30.1 18.14 24 10 15 22 3.42 15.25 3 11 14.45 18 18.91 11.93 24 5 29.09 11.93 33.55 18" style="fill:#fff86a"/><polygon points="30.192 13.43 33.55 18 38.012 15.272 35 10 30.192 13.43" style="fill:#ff8d1f"/><polygon points="17.808 13.43 13 10 9.988 15.272 14.45 18 17.808 13.43" style="fill:#ff8d1f"/><rect x="4" y="35" width="40" height="2" style="fill:#ffca46"/><rect x="4" y="41" width="40" height="2" style="fill:#ffca46"/><path d="M46.41,44.41A1.955,1.955,0,0,1,45,45H3a2,2,0,0,1-1.721-1A1.963,1.963,0,0,0,1,45a2.006,2.006,0,0,0,2,2H45a1.984,1.984,0,0,0,1.721-3A1.938,1.938,0,0,1,46.41,44.41Z" style="fill:#7655ff"/><path d="M46.41,32.41A1.955,1.955,0,0,1,45,33H3a2,2,0,0,1-1.721-1A1.963,1.963,0,0,0,1,33a2.006,2.006,0,0,0,2,2H45a1.984,1.984,0,0,0,1.721-3A1.938,1.938,0,0,1,46.41,32.41Z" style="fill:#7655ff"/><path d="M42,23c0-3.126.82-4.416,1.97-4.832A3.035,3.035,0,0,0,43,18c-1.66,0-3,1-3,5s1.34,5,3,5c.1,0,.2,0,.3-.01a2.789,2.789,0,0,0,.7-.146C42.836,27.441,42,26.157,42,23Z" style="fill:#7655ff"/><path d="M40,23c0-3.126.82-4.416,1.97-4.832A3.035,3.035,0,0,0,41,18c-1.66,0-3,1-3,5s1.34,5,3,5c.1,0,.2,0,.3-.01a2.789,2.789,0,0,0,.7-.146C40.836,27.441,40,26.157,40,23Z" style="fill:#ffca46"/><path d="M46,23c0-2.9-.71-4.23-1.73-4.73a2.353,2.353,0,0,0-.3-.1,2.245,2.245,0,0,0-.472.243C44.392,19,45,20.325,45,23s-.6,4-1.49,4.595a2.267,2.267,0,0,0,.494.249C45.169,27.439,46,26.154,46,23Z" style="fill:#af77ff"/><path d="M6,23c0-3.126-.82-4.416-1.97-4.832A3.035,3.035,0,0,1,5,18c1.66,0,3,1,3,5s-1.34,5-3,5c-.1,0-.2,0-.3-.01a2.789,2.789,0,0,1-.7-.146C5.164,27.441,6,26.157,6,23Z" style="fill:#7655ff"/><path d="M8,23c0-3.126-.82-4.416-1.97-4.832A3.035,3.035,0,0,1,7,18c1.66,0,3,1,3,5s-1.34,5-3,5c-.1,0-.2,0-.3-.01a2.789,2.789,0,0,1-.7-.146C7.164,27.441,8,26.157,8,23Z" style="fill:#ffca46"/><path d="M2,23c0-2.9.71-4.23,1.73-4.73a2.353,2.353,0,0,1,.3-.1,2.245,2.245,0,0,1,.472.243C3.608,19,3,20.325,3,23s.6,4,1.49,4.595A2.267,2.267,0,0,1,4,27.844C2.831,27.439,2,26.154,2,23Z" style="fill:#af77ff"/><polygon points="24 28 5 28 4.7 28 5 31 24 31 43 31 43.3 28 43 28 24 28" style="fill:#ffca46"/><path d="M27.86,19.82A5,5,0,1,0,29,23,5.007,5.007,0,0,0,27.86,19.82ZM24,27a4,4,0,1,1,4-4A4,4,0,0,1,24,27Z" style="fill:#7655ff"/><polygon points="27 21 27 25 24 27 21 25 21 21 24 19 27 21" style="fill:#d6e0fb"/><polygon points="22 21.9 24 20.5 24 19 21 21 22 22 22 21.9" style="fill:#e9e9ff"/><polygon points="22 22 21 21 21 25 22 24 22 22" style="fill:#fff"/><polygon points="26 21.9 26 22 27 21 24 19 24 20.5 26 21.9" style="fill:#fff"/><polygon points="26 22 26 24 27 25 27 21 26 22" style="fill:#e9e9ff"/><polygon points="26 24.1 24 25.5 24 27 27 25 26 24 26 24.1" style="fill:#c9d1f6"/><polygon points="22 24.1 22 24 21 25 24 27 24 25.5 22 24.1" style="fill:#bdc3f4"/><polygon points="46 21 46 25 44 27 42 25 42 21 44 19 46 21" style="fill:#d6e0fb"/><polygon points="42.667 21.9 44 20.5 44 19 42 21 42.667 22 42.667 21.9" style="fill:#e9e9ff"/><polygon points="42.667 22 42 21 42 25 42.667 24 42.667 22" style="fill:#fff"/><polygon points="45.333 21.9 45.333 22 46 21 44 19 44 20.5 45.333 21.9" style="fill:#fff"/><polygon points="45.333 22 45.333 24 46 25 46 21 45.333 22" style="fill:#e9e9ff"/><polygon points="45.333 24.1 44 25.5 44 27 46 25 45.333 24 45.333 24.1" style="fill:#c9d1f6"/><polygon points="42.667 24.1 42.667 24 42 25 44 27 44 25.5 42.667 24.1" style="fill:#bdc3f4"/><polygon points="6 21 6 25 4 27 2 25 2 21 4 19 6 21" style="fill:#d6e0fb"/><polygon points="2.667 21.9 4 20.5 4 19 2 21 2.667 22 2.667 21.9" style="fill:#e9e9ff"/><polygon points="2.667 22 2 21 2 25 2.667 24 2.667 22" style="fill:#fff"/><polygon points="5.333 21.9 5.333 22 6 21 4 19 4 20.5 5.333 21.9" style="fill:#fff"/><polygon points="5.333 22 5.333 24 6 25 6 21 5.333 22" style="fill:#e9e9ff"/><polygon points="5.333 24.1 4 25.5 4 27 6 25 5.333 24 5.333 24.1" style="fill:#c9d1f6"/><polygon points="2.667 24.1 2.667 24 2 25 4 27 4 25.5 2.667 24.1" style="fill:#bdc3f4"/><circle cx="45" cy="9" r="3" style="fill:#a166f5"/><circle cx="45" cy="9" r="2" style="fill:#ffca46"/><circle cx="24" cy="3" r="3" style="fill:#a166f5"/><circle cx="24" cy="3" r="2" style="fill:#ffca46"/><circle cx="3" cy="9" r="3" style="fill:#a166f5"/><circle cx="3" cy="9" r="2" style="fill:#ffca46"/><polygon points="37 37.5 37 40.5 35 42 33 40.5 33 37.5 35 36 37 37.5" style="fill:#a166f5"/><polygon points="33.667 38.175 35 37.125 35 36 33 37.5 33.667 38.25 33.667 38.175" style="fill:#8f62fe"/><polygon points="33.667 38.25 33 37.5 33 40.5 33.667 39.75 33.667 38.25" style="fill:#af77ff"/><polygon points="36.333 38.175 36.333 38.25 37 37.5 35 36 35 37.125 36.333 38.175" style="fill:#af77ff"/><polygon points="36.333 38.25 36.333 39.75 37 40.5 37 37.5 36.333 38.25" style="fill:#8f62fe"/><polygon points="36.333 39.825 35 40.875 35 42 37 40.5 36.333 39.75 36.333 39.825" style="fill:#7655ff"/><polygon points="33.667 39.825 33.667 39.75 33 40.5 35 42 35 40.875 33.667 39.825" style="fill:#5c52ff"/><path d="M37.3,37.1l-2-1.5a.5.5,0,0,0-.6,0l-2,1.5a.5.5,0,0,0-.2.4v3a.5.5,0,0,0,.2.4l2,1.5a.5.5,0,0,0,.6,0l2-1.5a.5.5,0,0,0,.2-.4v-3A.5.5,0,0,0,37.3,37.1ZM37,40.5,35,42l-2-1.5v-3L35,36l2,1.5Z" style="fill:#e9e9ff"/><path d="M26.3,37.1l-2-1.5a.5.5,0,0,0-.6,0l-2,1.5a.5.5,0,0,0-.2.4v3a.5.5,0,0,0,.2.4l2,1.5a.5.5,0,0,0,.6,0l2-1.5a.5.5,0,0,0,.2-.4v-3A.5.5,0,0,0,26.3,37.1ZM26,40.5,24,42l-2-1.5v-3L24,36l2,1.5Z" style="fill:#e9e9ff"/><path d="M14.3,37.1l-2-1.5a.5.5,0,0,0-.6,0l-2,1.5a.5.5,0,0,0-.2.4v3a.5.5,0,0,0,.2.4l2,1.5a.5.5,0,0,0,.6,0l2-1.5a.5.5,0,0,0,.2-.4v-3A.5.5,0,0,0,14.3,37.1ZM14,40.5,12,42l-2-1.5v-3L12,36l2,1.5Z" style="fill:#e9e9ff"/><polygon points="26 37.5 26 40.5 24 42 22 40.5 22 37.5 24 36 26 37.5" style="fill:#a166f5"/><polygon points="22.667 38.175 24 37.125 24 36 22 37.5 22.667 38.25 22.667 38.175" style="fill:#8f62fe"/><polygon points="22.667 38.25 22 37.5 22 40.5 22.667 39.75 22.667 38.25" style="fill:#af77ff"/><polygon points="25.333 38.175 25.333 38.25 26 37.5 24 36 24 37.125 25.333 38.175" style="fill:#af77ff"/><polygon points="25.333 38.25 25.333 39.75 26 40.5 26 37.5 25.333 38.25" style="fill:#8f62fe"/><polygon points="25.333 39.825 24 40.875 24 42 26 40.5 25.333 39.75 25.333 39.825" style="fill:#7655ff"/><polygon points="22.667 39.825 22.667 39.75 22 40.5 24 42 24 40.875 22.667 39.825" style="fill:#5c52ff"/><polygon points="14 37.5 14 40.5 12 42 10 40.5 10 37.5 12 36 14 37.5" style="fill:#a166f5"/><polygon points="10.667 38.175 12 37.125 12 36 10 37.5 10.667 38.25 10.667 38.175" style="fill:#8f62fe"/><polygon points="10.667 38.25 10 37.5 10 40.5 10.667 39.75 10.667 38.25" style="fill:#af77ff"/><polygon points="13.333 38.175 13.333 38.25 14 37.5 12 36 12 37.125 13.333 38.175" style="fill:#af77ff"/><polygon points="13.333 38.25 13.333 39.75 14 40.5 14 37.5 13.333 38.25" style="fill:#8f62fe"/><polygon points="13.333 39.825 12 40.875 12 42 14 40.5 13.333 39.75 13.333 39.825" style="fill:#7655ff"/><polygon points="10.667 39.825 10.667 39.75 10 40.5 12 42 12 40.875 10.667 39.825" style="fill:#5c52ff"/><path d="M24.682,32.5a.5.5,0,0,0,.5.5h15a.5.5,0,0,0,0-1h-15A.5.5,0,0,0,24.682,32.5Z" style="fill:#af77ff"/><path d="M41.682,32.5a.5.5,0,0,0,.5.5h1a.5.5,0,0,0,0-1h-1A.5.5,0,0,0,41.682,32.5Z" style="fill:#af77ff"/><rect x="7" y="44" width="6" height="1" rx="0.5" ry="0.5" style="fill:#af77ff"/><rect x="14" y="44" width="2" height="1" rx="0.5" ry="0.5" style="fill:#af77ff"/><ellipse cx="35.684" cy="25.695" rx="1.642" ry="2.286" transform="translate(-7.715 32.773) rotate(-45.02)" style="fill:#eaf6ff"/><ellipse cx="24.682" cy="2.708" rx="0.825" ry="1.148" transform="translate(5.32 18.252) rotate(-45.02)" style="fill:#eaf6ff"/><ellipse cx="45.682" cy="8.708" rx="0.825" ry="1.148" transform="translate(7.231 34.865) rotate(-45.02)" style="fill:#eaf6ff"/><ellipse cx="32.682" cy="26.708" rx="0.825" ry="1.148" transform="translate(-9.312 30.946) rotate(-45.02)" style="fill:#eaf6ff"/><ellipse cx="3.682" cy="8.708" rx="0.825" ry="1.148" transform="translate(-5.08 5.157) rotate(-45.02)" style="fill:#eaf6ff"/></g></svg>