<svg xmlns="http://www.w3.org/2000/svg" viewBox="0 0 48 48"><title>20-medal</title><g id="_20-medal" data-name="20-medal"><polygon points="16.36 5 24 12 19 12 7 1 12 1 16.36 5" style="fill:#6d5dff"/><polygon points="31.64 5 36 1 42 1 29 12 24 12 31.64 5" style="fill:#6d5dff"/><polygon points="19 12 16 12 1 1 7 1 19 12" style="fill:#a166f5"/><polygon points="47 1 32 12 29 12 42 1 47 1" style="fill:#a166f5"/><polygon points="31.64 5 24 12 16.36 5 31.64 5" style="fill:#fff"/><path d="M24,12h8v5l-.06.11a15.994,15.994,0,0,0-15.88,0L16,17V12h8Z" style="fill:#ffdc56"/><circle cx="24" cy="31" r="12" style="fill:#ffdc56"/><path d="M31.94,17.11A15.994,15.994,0,1,1,24,15,15.965,15.965,0,0,1,31.94,17.11ZM36,31A12,12,0,1,0,24,43,12,12,0,0,0,36,31Z" style="fill:#ffb337"/><path d="M18.828,3H29.172a2,2,0,0,0,1.414-.586L32,1H16l1.414,1.414A2,2,0,0,0,18.828,3Z" style="fill:#4543fe"/><path d="M16,27a11.925,11.925,0,0,1,1.762-6.238A11.992,11.992,0,1,0,34.238,37.238,11.983,11.983,0,0,1,16,27Z" style="fill:#ffca46"/><rect x="18" y="12" width="8" height="1" rx="0.5" ry="0.5" style="fill:#fff86a"/><rect x="27" y="12" width="2" height="1" rx="0.5" ry="0.5" style="fill:#fff86a"/><path d="M24,18A13,13,0,1,0,37,31,13,13,0,0,0,24,18Zm0,25A12,12,0,1,1,36,31,12,12,0,0,1,24,43Z" style="fill:#ff711f"/><path d="M16.06,17.11a15.994,15.994,0,0,1,15.88,0L32,17V16a16.985,16.985,0,0,0-16,0v1Z" style="fill:#ffa233"/><path d="M32,1,30.586,2.414A2,2,0,0,1,29.172,3H18.828a2,2,0,0,1-1.414-.586L16,1H12l4.36,4H31.64L36,1Z" style="fill:#2f35ff"/><polygon points="16.818 10 19 12 24 12 21.817 10 16.818 10" style="fill:#6354ff"/><polygon points="26.183 10 24 12 29 12 31.364 10 26.183 10" style="fill:#6354ff"/><polygon points="13.273 10 16 12 19 12 16.818 10 13.273 10" style="fill:#805bff"/><polygon points="29 12 32 12 34.727 10 31.364 10 29 12" style="fill:#805bff"/><ellipse cx="31.684" cy="25.695" rx="1.642" ry="2.286" transform="translate(-8.887 29.944) rotate(-45.02)" style="fill:#eaf6ff"/><ellipse cx="32.682" cy="29.708" rx="0.825" ry="1.148" transform="translate(-11.434 31.826) rotate(-45.02)" style="fill:#eaf6ff"/><ellipse cx="29.427" cy="23.208" rx="0.413" ry="0.574" transform="translate(-7.79 27.619) rotate(-45.02)" style="fill:#eaf6ff"/></g></svg>